<!-- openvoiceui-version: 1 -->
<svg xmlns="http://www.w3.org/2000/svg" viewBox="0 0 120 120" fill="none">
  <defs>
    <linearGradient id="csbg" x1="0" y1="0" x2="120" y2="120" gradientUnits="userSpaceOnUse">
      <stop offset="0" stop-color="#1e293b"/>
      <stop offset="1" stop-color="#0f172a"/>
    </linearGradient>
  </defs>
  <rect x="4" y="4" width="112" height="112" rx="24" fill="url(#csbg)"/>
  <rect x="4" y="4" width="112" height="112" rx="24" stroke="#334155" stroke-width="2"/>
  <!-- painter's palette -->
  <path d="M60 26c-19.9 0-36 14.6-36 32.6 0 18 16.1 32.6 36 32.6 3.3 0 6-2.7 6-6 0-1.6-.6-3-1.6-4.1-1-1.1-1.6-2.5-1.6-4.1 0-3.3 2.7-6 6-6h7.1C86.9 71 96 62.3 96 51.4 96 37.4 79.9 26 60 26z" fill="#e2e8f0"/>
  <path d="M60 26c-19.9 0-36 14.6-36 32.6 0 18 16.1 32.6 36 32.6 3.3 0 6-2.7 6-6 0-1.6-.6-3-1.6-4.1-1-1.1-1.6-2.5-1.6-4.1 0-3.3 2.7-6 6-6h7.1C86.9 71 96 62.3 96 51.4 96 37.4 79.9 26 60 26z" stroke="#94a3b8" stroke-width="2.5"/>
  <circle cx="46" cy="42" r="6" fill="#3b82f6"/>
  <circle cx="66" cy="38" r="6" fill="#10b981"/>
  <circle cx="80" cy="50" r="6" fill="#f59e0b"/>
  <circle cx="42" cy="60" r="6" fill="#ef4444"/>
  <!-- brush -->
  <g transform="rotate(38 88 84)">
    <rect x="84" y="52" width="8" height="34" rx="3" fill="#94a3b8"/>
    <rect x="84" y="84" width="8" height="6" fill="#475569"/>
    <path d="M84 90h8l-2 12c-.4 2-3.6 2-4 0l-2-12z" fill="#3b82f6"/>
  </g>
</svg>
